<!-- <svg width="24" height="24" viewBox="0 0 24 24" fill="none" xmlns="http://www.w3.org/2000/svg">
<g clip-path="url(#clip0_246_4760)">
<path d="M12.905 8.84651L12.905 8.84646C12.9194 8.06035 13.2418 7.3113 13.8028 6.76049C14.3639 6.20969 15.1188 5.90116 15.905 5.90129L12.905 8.84651ZM12.905 8.84651L12.877 10.4213M12.905 8.84651L12.877 10.4213M4.75811 7.80857L4.89001 7.91846C6.76679 9.48211 8.71781 10.4182 10.7495 10.6952C10.7495 10.6952 10.7495 10.6952 10.7495 10.6952L12.3104 10.9072L4.75811 7.80857ZM4.75811 7.80857L4.72759 7.97751M4.75811 7.80857L4.72759 7.97751M4.72759 7.97751C4.42576 9.64819 4.5683 11.0709 5.1479 12.3018C5.72718 13.532 6.73827 14.5605 8.15577 15.4519L8.15579 15.452M4.72759 7.97751L8.15579 15.452M8.15579 15.452L9.90279 16.55L9.954 16.4685M8.15579 15.452L9.954 16.4685M9.954 16.4685L9.90279 16.55C9.97196 16.5934 10.0294 16.6532 10.0702 16.724C10.1109 16.7948 10.1337 16.8745 10.1365 16.9562C10.1392 17.0378 10.122 17.1189 10.0862 17.1924C10.0504 17.2658 9.99716 17.3294 9.93112 17.3775L9.93101 17.3775M9.954 16.4685L9.93101 17.3775M9.93101 17.3775L8.33901 18.5405L8.11542 18.7039M9.93101 17.3775L8.11542 18.7039M8.11542 18.7039L8.39178 18.7211M8.11542 18.7039L8.39178 18.7211M8.39178 18.7211C9.3449 18.7805 10.2529 18.7385 11.0095 18.5884L11.0096 18.5884M8.39178 18.7211L11.0096 18.5884M11.0096 18.5884C13.3886 18.1134 15.3745 16.9794 16.7652 15.2211M11.0096 18.5884L16.7652 15.2211M12.877 10.4213C12.8757 10.4918 12.8594 10.5612 12.8293 10.625C12.7993 10.6887 12.7561 10.7454 12.7026 10.7912C12.649 10.8371 12.5864 10.8712 12.5188 10.8911C12.4513 10.9111 12.3803 10.9166 12.3105 10.9072L12.877 10.4213ZM16.7652 15.2211C18.1557 13.463 18.945 11.0883 18.945 8.14229M16.7652 15.2211L18.945 8.14229M18.945 8.14229C18.945 7.99668 18.8714 7.78474 18.744 7.55722M18.945 8.14229L18.744 7.55722M18.744 7.55722C18.6142 7.32559 18.4215 7.06508 18.1673 6.82049M18.744 7.55722L18.1673 6.82049M18.1673 6.82049C17.6587 6.33088 16.8999 5.90129 15.905 5.90129L18.1673 6.82049ZM20.4978 5.53842C20.8818 5.48388 21.3285 5.34345 21.916 5.01105C21.6101 6.49526 21.4321 7.16764 20.7642 8.08336L20.745 8.10969V8.14229C20.745 11.9415 19.578 14.7567 17.8258 16.7397C16.0726 18.7238 13.7277 19.8813 11.3624 20.3532C9.74529 20.6759 7.7544 20.5728 5.99643 20.2106C5.11813 20.0296 4.30077 19.7846 3.61983 19.4974C3.03727 19.2517 2.56009 18.9775 2.22956 18.6904C2.66065 18.6482 3.4114 18.5535 4.24366 18.3598C5.24355 18.1272 6.37173 17.7494 7.20306 17.141L7.31918 17.056L7.19904 16.9768C7.15724 16.9492 7.11178 16.9196 7.06301 16.8879C6.30477 16.3938 4.74648 15.3786 3.73155 13.5166C2.66714 11.5637 2.19257 8.66295 3.91362 4.42592C5.57889 6.34347 7.2726 7.66001 8.99504 8.3668L8.99505 8.36681C9.57662 8.60536 9.94255 8.72373 10.2318 8.79141C10.4509 8.84265 10.6261 8.86463 10.8117 8.88794C10.8703 8.89529 10.93 8.90278 10.9924 8.91135L11.2872 8.95189L11.1059 8.77077C11.131 7.8414 11.4254 6.93895 11.9539 6.17331C12.4904 5.39606 13.2442 4.79434 14.1211 4.4435C14.9979 4.09265 15.9588 4.00828 16.8833 4.20093C17.8079 4.39359 18.6551 4.85471 19.3189 5.52657L19.3485 5.55658L19.3907 5.55628C19.4934 5.55556 19.5972 5.55908 19.7036 5.56269C19.9483 5.57098 20.2068 5.57974 20.4978 5.53842Z" fill="black" stroke="white" stroke-width="0.2"/>
</g>
<defs>
<clipPath id="clip0_246_4760">
<rect width="24" height="24" fill="white"/>
</clipPath>
</defs>
</svg> -->

<svg width="21" height="17" viewBox="0 0 21 17" fill="none" xmlns="http://www.w3.org/2000/svg">
<path d="M10.905 4.84651L10.905 4.84646C10.9194 4.06035 11.2418 3.3113 11.8028 2.76049C12.3639 2.20969 13.1188 1.90116 13.905 1.90129L10.905 4.84651ZM10.905 4.84651L10.877 6.42135M10.905 4.84651L10.877 6.42135M2.75811 3.80857L2.89001 3.91846C4.76679 5.48211 6.71781 6.41823 8.74946 6.6952C8.74947 6.6952 8.74949 6.6952 8.74951 6.6952L10.3104 6.90718L2.75811 3.80857ZM2.75811 3.80857L2.72759 3.97751M2.75811 3.80857L2.72759 3.97751M2.72759 3.97751C2.42576 5.64819 2.5683 7.07086 3.1479 8.30176C3.72718 9.53198 4.73827 10.5605 6.15577 11.4519L6.15579 11.452M2.72759 3.97751L6.15579 11.452M6.15579 11.452L7.90279 12.55L7.954 12.4685M6.15579 11.452L7.954 12.4685M7.954 12.4685L7.90279 12.55C7.97196 12.5934 8.02943 12.6532 8.07016 12.724C8.1109 12.7948 8.13366 12.8745 8.13645 12.9562C8.13925 13.0378 8.122 13.1189 8.0862 13.1924C8.05041 13.2658 7.99716 13.3294 7.93112 13.3775L7.93101 13.3775M7.954 12.4685L7.93101 13.3775M7.93101 13.3775L6.33901 14.5405L6.11542 14.7039M7.93101 13.3775L6.11542 14.7039M6.11542 14.7039L6.39178 14.7211M6.11542 14.7039L6.39178 14.7211M6.39178 14.7211C7.3449 14.7805 8.25288 14.7385 9.00946 14.5884L9.00958 14.5884M6.39178 14.7211L9.00958 14.5884M9.00958 14.5884C11.3886 14.1134 13.3745 12.9794 14.7652 11.2211M9.00958 14.5884L14.7652 11.2211M10.877 6.42135C10.8757 6.49182 10.8594 6.5612 10.8293 6.62495C10.7993 6.6887 10.7561 6.74537 10.7026 6.79125C10.649 6.83712 10.5864 6.87117 10.5188 6.89115C10.4513 6.91112 10.3803 6.91659 10.3105 6.9072L10.877 6.42135ZM14.7652 11.2211C16.1557 9.46296 16.945 7.08835 16.945 4.14229M14.7652 11.2211L16.945 4.14229M16.945 4.14229C16.945 3.99668 16.8714 3.78474 16.744 3.55722M16.945 4.14229L16.744 3.55722M16.744 3.55722C16.6142 3.32559 16.4215 3.06508 16.1673 2.82049M16.744 3.55722L16.1673 2.82049M16.1673 2.82049C15.6587 2.33088 14.8999 1.90129 13.905 1.90129L16.1673 2.82049ZM18.4978 1.53842C18.8818 1.48388 19.3285 1.34345 19.916 1.01105C19.6101 2.49526 19.4321 3.16764 18.7642 4.08336L18.745 4.10969V4.14229C18.745 7.94153 17.578 10.7567 15.8258 12.7397C14.0726 14.7238 11.7277 15.8813 9.36243 16.3532C7.74529 16.6759 5.7544 16.5728 3.99643 16.2106C3.11813 16.0296 2.30077 15.7846 1.61983 15.4974C1.03727 15.2517 0.560091 14.9775 0.229559 14.6904C0.660648 14.6482 1.4114 14.5535 2.24366 14.3598C3.24355 14.1272 4.37173 13.7494 5.20306 13.141L5.31918 13.056L5.19904 12.9768C5.15724 12.9492 5.11178 12.9196 5.06301 12.8879C4.30477 12.3938 2.74648 11.3786 1.73155 9.51655C0.667136 7.56374 0.192566 4.66295 1.91362 0.425918C3.57889 2.34347 5.2726 3.66001 6.99504 4.3668L6.99505 4.36681C7.57662 4.60536 7.94255 4.72373 8.23185 4.79141C8.45087 4.84265 8.62608 4.86463 8.81173 4.88794C8.87034 4.89529 8.92998 4.90278 8.99238 4.91135L9.28722 4.95189L9.10594 4.77077C9.13096 3.8414 9.42538 2.93895 9.95386 2.17331C10.4904 1.39606 11.2442 0.79434 12.1211 0.443497C12.9979 0.0926537 13.9588 0.00827681 14.8833 0.200931C15.8079 0.393585 16.6551 0.854708 17.3189 1.52657L17.3485 1.55658L17.3907 1.55628C17.4934 1.55556 17.5972 1.55908 17.7036 1.56269C17.9483 1.57098 18.2068 1.57974 18.4978 1.53842Z" fill="black" stroke="white" stroke-width="0.2"/>
</svg>
